<?xml version="1.0" encoding="UTF-8" standalone="no"?>
<!-- Created with Inkscape (http://www.inkscape.org/) -->

<svg
   width="210mm"
   height="297mm"
   viewBox="0 0 210 297"
   version="1.1"
   id="svg5"
   xml:space="preserve"
   inkscape:version="1.2.2 (732a01da63, 2022-12-09)"
   sodipodi:docname="nirvan.svg"
   xmlns:inkscape="http://www.inkscape.org/namespaces/inkscape"
   xmlns:sodipodi="http://sodipodi.sourceforge.net/DTD/sodipodi-0.dtd"
   xmlns="http://www.w3.org/2000/svg"
   xmlns:svg="http://www.w3.org/2000/svg"><sodipodi:namedview
     id="namedview7"
     pagecolor="#ffffff"
     bordercolor="#000000"
     borderopacity="0.25"
     inkscape:showpageshadow="2"
     inkscape:pageopacity="0.0"
     inkscape:pagecheckerboard="0"
     inkscape:deskcolor="#d1d1d1"
     inkscape:document-units="mm"
     showgrid="false"
     inkscape:zoom="1.9224607"
     inkscape:cx="338.62851"
     inkscape:cy="511.58393"
     inkscape:window-width="2560"
     inkscape:window-height="1351"
     inkscape:window-x="-9"
     inkscape:window-y="-9"
     inkscape:window-maximized="1"
     inkscape:current-layer="layer1" /><defs
     id="defs2" /><g
     inkscape:label="Layer 1"
     inkscape:groupmode="layer"
     id="layer1"><path
       id="path356"
       style="display:inline;fill:#000000;stroke:#000000;stroke-width:0.3;stroke-linecap:round;stroke-linejoin:round;paint-order:fill markers stroke"
       d="m 48.994942,115.79242 c -1.88197,0.003 -3.739926,0.21406 -5.461165,0.69453 -3.599266,1.00471 -6.168803,3.1998 -7.54631,5.85545 -2.159698,4.16364 -1.814233,8.96634 -1.167887,9.50485 h -5.917985 l -0.274919,7.98246 h 6.192904 l 0.275435,30.55317 h 6.881234 L 41.83879,139.82971 h 22.846151 v 6.33088 l -13.35009,-0.27544 c 0,0 -3.502436,1.73611 -4.265373,3.38274 -0.858586,1.85306 -0.741644,4.31085 0.198955,6.12366 0.926464,1.78556 2.829364,3.33569 4.818827,3.63337 1.257039,0.18809 3.583244,-1.3038 3.583244,-1.3038 v -5.50509 h 9.014437 v 18.16685 h 6.743774 v -30.55317 h 24.910624 v 15.41404 c 0,0 -2.620992,2.63572 -4.512386,2.89595 -1.891394,0.26023 -4.754749,-0.54982 -5.826518,-1.78439 -1.071769,-1.23456 -1.006701,-2.36486 -0.578259,-3.67006 0.428442,-1.30519 1.960752,-2.52728 3.217375,-3.1843 1.256623,-0.65698 3.915006,-0.72553 3.915006,-0.72553 l 0.273369,-5.64307 c 0.08846,-0.17692 -4.737114,-0.33018 -6.937045,0.39377 -2.008369,0.66091 -4.076212,1.7537 -5.30872,3.47163 -1.640487,2.28658 -2.463418,5.3813 -2.113566,8.17366 0.311195,2.4838 1.371589,4.81289 3.6158,6.58202 2.244212,1.76914 6.801057,2.6916 9.295557,2.53938 2.494499,-0.15222 4.959387,-2.02985 4.959387,-2.02985 v 8.11992 h 6.468341 v -30.55317 h 8.67079 v 30.55317 h 7.43158 v -30.55317 h 8.11992 v 15.68948 c -0.1882,0.81459 1.64933,3.88832 3.06784,5.0117 1.87038,1.48124 4.39596,2.18899 6.77943,2.29599 2.56094,0.11497 5.31877,-0.41968 7.47603,-1.80454 1.72061,-1.10455 3.87696,-5.10498 3.59636,-5.50315 v -15.68948 h 6.88123 v 30.55317 h 6.60631 v -30.55317 h 6.05545 v -7.98246 h -48.58257 c 0,0 -2.51396,-1.32857 -3.1011,-2.52543 -0.5952,-1.21328 -0.75032,-2.86819 -0.10025,-4.05298 0.54972,-1.0019 1.80662,-1.59699 2.93625,-1.76992 1.18786,-0.18185 3.50263,0.85215 3.50263,0.85215 l 1.86294,-4.69429 c -2.04145,-0.98114 -4.00548,-1.73099 -6.11332,-1.63969 -2.15451,0.0934 -4.46075,0.78618 -6.08025,2.2102 -1.52323,1.33937 -2.43808,3.40885 -2.79311,5.40587 -0.23965,1.34806 -7.8e-4,2.80622 0.51211,4.07572 0.33362,0.82575 1.08319,1.53109 1.60145,2.13837 H 41.83879 c -0.353069,0.0706 -0.46337,-3.38684 0.732772,-5.69888 0.988397,-1.91048 3.181003,-3.05919 5.181079,-3.85816 3.170311,-1.26644 6.98793,0.0412 10.157519,1.30948 3.234406,1.29419 8.426359,6.18309 8.426359,6.18309 l 3.910356,-3.5047 c 0.229809,-0.89991 -2.589623,-4.94902 -8.953459,-7.85533 -3.246763,-1.48277 -7.841176,-2.6379 -12.298474,-2.63033 z m 84.270308,24.17888 h 8.29924 l -0.20644,15.41026 c 0.0247,0.0215 -0.62303,1.38284 -1.22953,1.76559 -0.78313,0.49422 -1.81512,0.46273 -2.74109,0.452 -0.69101,-0.008 -1.42424,-0.0655 -2.03718,-0.38463 -0.80475,-0.41905 -1.94665,-1.82116 -1.94737,-1.90177 z"
       sodipodi:nodetypes="sssccccccccccsssccccccccssscccsssssccccccccccssscccccccccsssccssssccsssccsscccaaasc" /></g></svg>
